<svg width="454" height="496" viewBox="0 0 454 496" fill="none" xmlns="http://www.w3.org/2000/svg">
<path d="M5 345.5L101.5 490.5L164.5 491H282.5L243.5 385.5L184 347.5L101 149.5L133.5 83.5L108 13.5L5 154.5V345.5Z" fill="white"/>
<path d="M101 149.5L57 179L89 328M101 149.5L184 347.5L243.5 385.5L282.5 491H164.5L101.5 490.5L5 345.5V154.5L108 13.5L133.5 83.5L101 149.5Z" stroke="#1E1E1E" stroke-width="10"/>
<path d="M449 151.5L352.5 6.5L171.5 6L210.5 111.5L270 149.5L353 347.5L320.5 413.5L346 483.5L449 342.5V151.5Z" fill="white"/>
<path d="M353 347.5L397 318L365 169M353 347.5L270 149.5L210.5 111.5L171.5 6L352.5 6.5L449 151.5V342.5L346 483.5L320.5 413.5L353 347.5Z" stroke="#1E1E1E" stroke-width="10"/>
<path d="M311 335.037L244.915 178.522L178.386 130.5L150 165.182L214.311 327.034L290.598 375.5L311 335.037Z" fill="white" stroke="#1E1E1E" stroke-width="10"/>
</svg>
